<svg xmlns="http://www.w3.org/2000/svg" xml:space="preserve" width="30px" height="30px" version="1.1" style="shape-rendering:geometricPrecision; text-rendering:geometricPrecision; image-rendering:optimizeQuality; fill-rule:evenodd; clip-rule:evenodd"  viewBox="0 0 400 400" xmlns:xlink="http://www.w3.org/1999/xlink">
    <defs>
        <style type="text/css">
            <![CDATA[
          .str0 {stroke:white;stroke-width:2.36221}
          .fil3 {fill:#0E59EF}
          .fil0 {fill:red}
          .fil1 {fill:white}
          .fil2 {fill:url(#id0)}
        ]]>
        </style>
        <linearGradient id="id0" gradientUnits="userSpaceOnUse" x1="69.0285" y1="98.399" x2="213.998" y2="260.602">
            <stop offset="0" style="stop-opacity:1; stop-color:#275FCF"/>
            <stop offset="1" style="stop-opacity:1; stop-color:#0E59F0"/>
        </linearGradient>
    </defs>
    <g id="Слой_x0020_1">
        <metadata id="CorelCorpID_0Corel-Layer"/>
        <path class="fil0" d="M164 29c75,-15 132,13 153,61 18,42 9,98 -30,152 -19,31 -27,62 -28,90l-20 -5 0 -91c-106,-39 -136,-113 -75,-207z"/>
        <path class="fil1 str0" d="M300 125c-2,11 -13,4 -15,-5 -13,-44 -53,-59 -70,-62 -12,-3 2,-8 6,-8 33,-2 82,44 79,75z"/>
        <path class="fil2" d="M138 36c-126,56 -66,167 -28,203 14,21 20,30 23,64l88 20 0 -75c-120,-45 -126,-139 -83,-212z"/>
        <polygon class="fil3" points="134,327 260,357 260,386 135,387 "/>
    </g>
</svg>